Coordinates
version=1
nRows=27
nColumns=38
inDegrees=no

Units are S.I. units (second, meters, Newtons, ...)
If the header above contains a line with 'inDegrees', this indicates whether rotational values are in degrees (yes) or radians (no).

endheader
time	pelvis_tilt	pelvis_list	pelvis_rotation	pelvis_tx	pelvis_ty	pelvis_tz	hip_flexion_r	hip_adduction_r	hip_rotation_r	knee_angle_r	ankle_angle_r	subtalar_angle_r	mtp_angle_r	hip_flexion_l	hip_adduction_l	hip_rotation_l	knee_angle_l	ankle_angle_l	subtalar_angle_l	mtp_angle_l	lumbar_extension	lumbar_bending	lumbar_rotation	arm_flex_r	arm_add_r	arm_rot_r	elbow_flex_r	pro_sup_r	wrist_flex_r	wrist_dev_r	arm_flex_l	arm_add_l	arm_rot_l	elbow_flex_l	pro_sup_l	wrist_flex_l	wrist_dev_l
0	3.00308	1.3103	-1.32903	0.685449	-0.0973299	0.947762	-0.371326	0.0495031	-0.00488655	0.156806	-0.22613	0	0	-0.352656	-0.13231	-0.0527275	0.155824	-0.206909	0	0	-0.30375	0.0750113	-0.176835	0.0820364	-0.284525	0.583744	0.691165	1.56773	0	0	-0.156814	0.00334331	-0.390322	0.83377	1.5708	0	0
0.01	2.94668	1.33938	-1.28162	0.685541	-0.0963002	0.947029	-0.333958	0.0536479	0.0089458	0.162921	-0.228536	0	0	-0.320625	-0.135263	-0.0547834	0.156227	-0.20905	0	0	-0.257314	0.0945365	-0.167959	0.0844473	-0.290449	0.616614	0.644296	1.55963	0	0	-0.134397	-0.0443284	-0.262398	0.741448	1.5708	0	0
0.02	2.94237	1.33779	-1.27965	0.685769	-0.0965949	0.947126	-0.334799	0.0543321	0.0114669	0.162932	-0.228885	0	0	-0.322501	-0.13585	-0.0561048	0.155575	-0.208866	0	0	-0.260233	0.095319	-0.162761	0.0840047	-0.291057	0.624542	0.620447	1.56513	0	0	-0.132735	-0.0434625	-0.266685	0.736774	1.5708	0	0
0.03	2.94407	1.33833	-1.28127	0.68588	-0.096559	0.947165	-0.334961	0.0541504	0.0092571	0.161445	-0.229562	0	0	-0.323633	-0.134565	-0.051796	0.151781	-0.209675	0	0	-0.2602	0.0941745	-0.162296	0.0845522	-0.291805	0.636813	0.598951	1.5708	0	0	-0.133713	-0.0429333	-0.272596	0.735061	1.5708	0	0
0.04	2.94542	1.34081	-1.28089	0.685807	-0.0963143	0.947016	-0.333646	0.0537608	0.0040191	0.159233	-0.230548	0	0	-0.321314	-0.133494	-0.0470329	0.150966	-0.209865	0	0	-0.257211	0.0925211	-0.164279	0.0851019	-0.293975	0.652584	0.58159	1.5708	0	0	-0.136681	-0.042392	-0.27887	0.736128	1.5708	0	0
0.05	2.94137	1.34292	-1.27718	0.685821	-0.0963281	0.946889	-0.331218	0.0539395	0.00314958	0.158704	-0.23134	0	0	-0.317055	-0.133364	-0.0468486	0.155361	-0.208231	0	0	-0.254977	0.092039	-0.165066	0.0871173	-0.297809	0.670324	0.568529	1.5708	0	0	-0.139761	-0.0421145	-0.283447	0.739766	1.5708	0	0
0.06	2.9381	1.34449	-1.27547	0.685967	-0.0964846	0.946927	-0.328775	0.0537801	0.00442451	0.159193	-0.231808	0	0	-0.314119	-0.132151	-0.0459298	0.158232	-0.206626	0	0	-0.253658	0.0914425	-0.164993	0.0900162	-0.301983	0.688492	0.558757	1.5708	0	0	-0.142195	-0.0425988	-0.286228	0.744203	1.5708	0	0
0.07	2.9389	1.3464	-1.27711	0.686146	-0.0965313	0.947068	-0.326751	0.0528189	0.00441988	0.158963	-0.232497	0	0	-0.311936	-0.129836	-0.0425064	0.158854	-0.206203	0	0	-0.251617	0.0897994	-0.165712	0.0921904	-0.30565	0.703563	0.551696	1.5708	0	0	-0.14483	-0.0443375	-0.286686	0.749302	1.5708	0	0
0.08	2.94122	1.34834	-1.28045	0.686333	-0.0965457	0.947292	-0.324909	0.0512509	0.00455457	0.158556	-0.23336	0	0	-0.309494	-0.127396	-0.0405656	0.160373	-0.206272	0	0	-0.249341	0.0878386	-0.166171	0.0930245	-0.308859	0.712322	0.547397	1.5708	0	0	-0.147284	-0.0470156	-0.284264	0.754906	1.5708	0	0
0.09	2.94389	1.35033	-1.28462	0.686547	-0.0965522	0.947549	-0.32261	0.0496502	0.00524995	0.159042	-0.234278	0	0	-0.306543	-0.125283	-0.0412627	0.163214	-0.206475	0	0	-0.246885	0.0859531	-0.166254	0.0933627	-0.311871	0.717676	0.545237	1.5708	0	0	-0.149413	-0.0504299	-0.279554	0.760715	1.5708	0	0
0.1	2.948	1.35087	-1.29039	0.686136	-0.0963861	0.947687	-0.322374	0.0470905	0.00308582	0.159018	-0.236047	0	0	-0.268306	-0.14285	-0.128313	0.255578	-0.186652	0	0	-0.245771	0.0848852	-0.166249	0.0921619	-0.317358	0.718404	0.548494	1.5708	0	0	-0.152616	-0.0519509	-0.27636	0.769456	1.5708	0	0
0.11	2.94303	1.35367	-1.2858	0.686101	-0.0964519	0.947647	-0.318755	0.0472585	0.00396385	0.159628	-0.236208	0	0	-0.266362	-0.142419	-0.126019	0.252533	-0.185121	0	0	-0.242214	0.0851468	-0.166903	0.090825	-0.320429	0.713833	0.550575	1.5708	0	0	-0.1547	-0.0548521	-0.271843	0.776709	1.5708	0	0
0.12	2.93949	1.35652	-1.28238	0.686057	-0.0965396	0.947601	-0.315173	0.0471342	0.00472892	0.160189	-0.236278	0	0	-0.265166	-0.141292	-0.121378	0.247267	-0.185893	0	0	-0.238815	0.0850823	-0.167448	0.0887996	-0.322873	0.705322	0.553481	1.5708	0	0	-0.155999	-0.0580752	-0.266953	0.783691	1.5708	0	0
0.13	2.93724	1.35931	-1.28014	0.68602	-0.0966513	0.947557	-0.311686	0.0467493	0.00544502	0.160776	-0.236225	0	0	-0.264252	-0.139797	-0.116061	0.241479	-0.187552	0	0	-0.235626	0.0846376	-0.16762	0.0860814	-0.324959	0.694254	0.557425	1.5708	0	0	-0.15683	-0.0614599	-0.262245	0.790714	1.5708	0	0
0.14	2.93588	1.3617	-1.27852	0.685973	-0.0968015	0.947539	-0.308602	0.0463763	0.00581549	0.16143	-0.236103	0	0	-0.263766	-0.138251	-0.110478	0.235476	-0.189661	0	0	-0.233034	0.0840829	-0.167606	0.0831034	-0.326591	0.680379	0.561806	1.5708	0	0	-0.156825	-0.0647374	-0.258258	0.797531	1.5708	0	0
0.15	2.9351	1.36373	-1.27735	0.685917	-0.0969806	0.947525	-0.305926	0.0460283	0.00613596	0.162072	-0.236012	0	0	-0.26369	-0.136719	-0.104776	0.229415	-0.191871	0	0	-0.231002	0.0835338	-0.167441	0.0801304	-0.327818	0.664714	0.566219	1.5708	0	0	-0.156268	-0.0679477	-0.254524	0.804215	1.5708	0	0
0.16	2.93439	1.36559	-1.27618	0.685863	-0.0971794	0.947508	-0.303523	0.0457328	0.00663789	0.162539	-0.235924	0	0	-0.263563	-0.135294	-0.0993389	0.223916	-0.193731	0	0	-0.229055	0.0829355	-0.16736	0.077753	-0.32897	0.651247	0.570325	1.5708	0	0	-0.1553	-0.0711002	-0.251236	0.810453	1.5708	0	0
0.17	2.93416	1.36738	-1.27536	0.685797	-0.0974093	0.947495	-0.301171	0.0453426	0.00681936	0.163115	-0.235828	0	0	-0.263404	-0.13386	-0.0939445	0.218479	-0.195743	0	0	-0.227357	0.0822564	-0.167546	0.0754426	-0.329982	0.63602	0.575053	1.5708	0	0	-0.153934	-0.0740313	-0.249002	0.816562	1.5708	0	0
0.18	2.93641	1.36874	-1.27671	0.685613	-0.0977018	0.94751	-0.299358	0.0443944	0.00587314	0.163724	-0.235654	0	0	-0.262825	-0.132589	-0.0921124	0.215102	-0.197514	0	0	-0.226194	0.0813408	-0.16766	0.0738971	-0.331013	0.623958	0.578737	1.5708	0	0	-0.151683	-0.0763681	-0.247775	0.821632	1.5708	0	0
0.19	2.942	1.3701	-1.28084	0.685255	-0.0980521	0.947503	-0.297788	0.04266	0.00400039	0.164159	-0.235458	0	0	-0.261287	-0.131288	-0.0940427	0.213958	-0.199137	0	0	-0.225476	0.0800305	-0.168441	0.0731983	-0.332159	0.614543	0.581801	1.5708	0	0	-0.149249	-0.0782148	-0.247433	0.826494	1.5708	0	0
0.2	2.94482	1.37107	-1.28262	0.685095	-0.0983668	0.947458	-0.296741	0.0418834	0.00346829	0.164055	-0.235299	0	0	-0.260334	-0.13036	-0.0934591	0.212659	-0.200286	0	0	-0.224866	0.079072	-0.168875	0.0732517	-0.332832	0.607341	0.583709	1.5708	0	0	-0.146897	-0.0799914	-0.248021	0.831178	1.5708	0	0
0.21	2.9961	1.32603	-1.33135	0.685137	-0.100978	0.948996	-0.34826	0.0431598	-0.00431603	0.156002	-0.237732	0	0	-0.31172	-0.131527	-0.0959987	0.205452	-0.202036	0	0	-0.291791	0.04298	-0.122047	0.0498167	-0.323864	0.543776	0.593273	1.5708	0	0	-0.0886755	-0.363426	0.331468	0.932342	1.5708	0	0
0.22	2.94184	1.37265	-1.27933	0.685183	-0.0988892	0.947487	-0.294203	0.0423327	0.00512167	0.164002	-0.235766	0	0	-0.26228	-0.128724	-0.0828946	0.201748	-0.205912	0	0	-0.222324	0.0783884	-0.155047	0.0581202	-0.331896	0.556189	0.592967	1.5708	0	0	-0.131493	-0.0855624	-0.23517	0.828979	1.5708	0	0
0.23	2.99288	1.32637	-1.32796	0.685233	-0.101541	0.949158	-0.347059	0.044273	-0.0023691	0.15511	-0.239201	0	0	-0.314373	-0.13079	-0.0871791	0.196077	-0.205245	0	0	-0.292122	0.0441048	-0.124557	0.056676	-0.3249	0.545141	0.591879	1.5708	0	0	-0.0846914	-0.366475	0.322543	0.937064	1.5708	0	0
0.24	2.99186	1.32693	-1.3268	0.685266	-0.101867	0.949138	-0.346056	0.0447279	-0.00171444	0.155392	-0.239245	0	0	-0.314342	-0.130444	-0.0841697	0.193545	-0.205975	0	0	-0.291556	0.0443258	-0.122805	0.0567451	-0.324871	0.538216	0.592585	1.5708	0	0	-0.0790265	-0.368402	0.324022	0.936894	1.5708	0	0
0.25	2.99034	1.32761	-1.32534	0.685347	-0.102154	0.949114	-0.344906	0.0453484	-0.000709726	0.155752	-0.238888	0	0	-0.314473	-0.130146	-0.0807185	0.19053	-0.206717	0	0	-0.291009	0.0445694	-0.122142	0.0579392	-0.324444	0.532543	0.593016	1.5708	0	0	-0.0749031	-0.369837	0.32308	0.937241	1.5708	0	0
0.26	2.98893	1.32848	-1.32398	0.685447	-0.102407	0.949082	-0.343561	0.0454623	0.000177606	0.155835	-0.238761	0	0	-0.314385	-0.129835	-0.0774804	0.187631	-0.207457	0	0	-0.290236	0.0446824	-0.122005	0.0594225	-0.323571	0.525994	0.593487	1.5708	0	0	-0.0717306	-0.37108	0.321179	0.937807	1.5708	0	0
